<svg width="44" height="51" viewBox="0 0 44 51" fill="none" xmlns="http://www.w3.org/2000/svg">
<ellipse cx="22.2683" cy="25.5" rx="21.525" ry="24.734" fill="#58BEBF" fill-opacity="0.2"/>
<path fill-rule="evenodd" clip-rule="evenodd" d="M19.4963 36.8189V32.1414H25.4971V36.8189H30.0194V11.6249H14.9733V36.8189H19.4963ZM25.4971 13.9393H28.028V16.8799H25.4971V13.9393ZM28.028 18.2142H25.4971V21.1556H28.028V18.2142ZM25.4971 22.4898H28.028V25.4296H25.4971V22.4898ZM28.028 26.7639H25.4971V29.706H28.028V26.7639ZM21.2316 13.9393H23.7632V16.8799H21.2316V13.9393ZM23.7632 18.2142H21.2316V21.1556H23.7632V18.2142ZM21.2316 22.4898H23.7632V25.4296H21.2316V22.4898ZM23.7632 26.7639H21.2316V29.706H23.7632V26.7639ZM16.9661 13.9393H19.497V16.8799H16.9661V13.9393ZM19.497 18.2142H16.9661V21.1556H19.497V18.2142ZM16.9661 22.4898H19.497V25.4296H16.9661V22.4898ZM19.497 26.7639H16.9661V29.706H19.497V26.7639Z" fill="#58BEBF"/>
</svg>
